<svg width="526" height="338" viewBox="0 0 526 338" fill="none" xmlns="http://www.w3.org/2000/svg">
<g clip-path="url(#clip0_131_2049)">
<rect width="430.146" height="244.944" rx="8.96137" transform="matrix(0.866025 -0.5 0.866025 0.5 -59 215.414)" fill="#E3D4D5"/>
<rect width="117.095" height="244.944" transform="matrix(0.866025 -0.5 0.866025 0.5 -59.0036 215.412)" fill="#D9494D"/>
<rect width="117.095" height="71.9897" transform="matrix(0.866025 -0.5 0.866025 0.5 -59.0036 215.412)" fill="#C93C40"/>
<rect width="83.6395" height="62.4309" rx="5.97425" transform="matrix(0.866025 -0.5 0.866025 0.5 318.429 213.471)" fill="white"/>
<rect x="0.776077" width="82.7433" height="40.9236" rx="5.52618" transform="matrix(0.866025 -0.5 0.866025 0.5 318.533 213.859)" fill="#DBA023" stroke="#E6E6E6" stroke-width="0.896137"/>
<path d="M395.104 225.026C395.03 225.069 394.952 225.095 394.871 225.102C394.794 225.107 394.722 225.096 394.657 225.069C394.589 225.041 394.534 224.997 394.494 224.938L392.999 222.655C392.95 222.58 392.934 222.516 392.953 222.462C392.971 222.404 393.018 222.354 393.092 222.311C393.164 222.27 393.248 222.245 393.344 222.236C393.44 222.223 393.553 222.231 393.684 222.26L397.642 223.12C397.747 223.142 397.825 223.172 397.875 223.212C397.924 223.251 397.944 223.293 397.935 223.338C397.923 223.381 397.881 223.423 397.809 223.465C397.722 223.515 397.634 223.542 397.544 223.548C397.454 223.55 397.347 223.536 397.223 223.508L396.217 223.276L396.631 223.225L394.666 224.36L394.755 224.12L395.16 224.698C395.21 224.774 395.233 224.836 395.23 224.884C395.227 224.932 395.185 224.98 395.104 225.026ZM393.768 222.712L394.666 223.983L394.396 223.967L395.951 223.069L395.984 223.223L393.777 222.706L393.768 222.712ZM399.268 222.633C399.01 222.782 398.743 222.852 398.467 222.843C398.187 222.832 397.905 222.745 397.619 222.58L395.417 221.308C395.32 221.252 395.272 221.196 395.272 221.139C395.272 221.081 395.319 221.026 395.412 220.972C395.505 220.918 395.601 220.891 395.701 220.891C395.803 220.89 395.902 220.916 395.999 220.972L398.173 222.227C398.316 222.31 398.451 222.354 398.578 222.359C398.709 222.363 398.83 222.332 398.942 222.268C398.966 222.253 398.99 222.24 399.011 222.227C399.03 222.213 399.049 222.199 399.067 222.184C399.105 222.156 399.146 222.146 399.193 222.155C399.237 222.162 399.303 222.192 399.393 222.244C399.471 222.288 399.516 222.332 399.528 222.375C399.541 222.418 399.516 222.463 399.454 222.51C399.426 222.529 399.396 222.55 399.365 222.572C399.334 222.593 399.302 222.614 399.268 222.633ZM400.369 221.987C400.276 222.04 400.178 222.068 400.076 222.07C399.973 222.068 399.874 222.04 399.778 221.984L398.199 221.073L397.985 221.196C397.911 221.239 397.834 221.262 397.757 221.263C397.676 221.263 397.602 221.244 397.533 221.204C397.462 221.163 397.428 221.12 397.431 221.075C397.434 221.03 397.473 220.987 397.547 220.944L397.929 220.723L397.915 220.909L397.757 220.817C397.437 220.633 397.279 220.448 397.282 220.263C397.282 220.077 397.42 219.888 397.696 219.696L397.841 219.597C397.897 219.557 397.957 219.535 398.022 219.529C398.084 219.522 398.143 219.528 398.199 219.546C398.252 219.562 398.295 219.585 398.33 219.615C398.364 219.646 398.382 219.68 398.385 219.718C398.389 219.752 398.368 219.783 398.325 219.812L398.264 219.852C398.1 219.961 398.016 220.062 398.013 220.153C398.01 220.245 398.087 220.336 398.246 220.427L398.418 220.527L398.269 220.527L398.739 220.255C398.814 220.212 398.89 220.19 398.968 220.188C399.045 220.186 399.12 220.206 399.191 220.247C399.259 220.287 399.293 220.33 399.293 220.376C399.29 220.421 399.252 220.465 399.177 220.508L398.781 220.737L400.36 221.648C400.558 221.763 400.562 221.876 400.369 221.987ZM401.916 221.093C401.82 221.149 401.721 221.178 401.618 221.179C401.516 221.178 401.416 221.149 401.32 221.093L399.56 220.077C399.464 220.022 399.416 219.965 399.416 219.908C399.416 219.85 399.461 219.796 399.551 219.744C399.641 219.692 399.735 219.666 399.835 219.666C399.934 219.666 400.032 219.694 400.128 219.749L400.422 219.919L400.375 219.945C400.232 219.813 400.176 219.682 400.207 219.553C400.238 219.424 400.35 219.293 400.543 219.16C400.602 219.119 400.67 219.1 400.748 219.101C400.825 219.1 400.907 219.12 400.994 219.163C401.078 219.204 401.123 219.252 401.129 219.306C401.136 219.356 401.101 219.408 401.027 219.462L400.934 219.526C400.763 219.646 400.679 219.763 400.682 219.876C400.682 219.987 400.771 220.093 400.948 220.195L401.912 220.752C402.008 220.808 402.058 220.865 402.061 220.924C402.061 220.981 402.013 221.038 401.916 221.093ZM404.537 219.591C404.279 219.74 404.009 219.84 403.727 219.892C403.444 219.944 403.163 219.949 402.884 219.906C402.608 219.861 402.348 219.769 402.106 219.629C401.87 219.493 401.712 219.346 401.631 219.188C401.554 219.028 401.551 218.871 401.622 218.715C401.693 218.555 401.839 218.412 402.06 218.285C402.221 218.191 402.392 218.123 402.572 218.08C402.755 218.035 402.941 218.016 403.131 218.021C403.323 218.025 403.514 218.054 403.703 218.11C403.893 218.162 404.076 218.239 404.253 218.341C404.309 218.373 404.332 218.41 404.323 218.451C404.313 218.489 404.273 218.528 404.202 218.57L402.707 219.433L402.372 219.239L403.68 218.484L403.675 218.567C403.533 218.484 403.391 218.428 403.252 218.398C403.115 218.365 402.982 218.358 402.851 218.376C402.721 218.39 402.597 218.432 402.479 218.5C402.348 218.575 402.268 218.657 402.237 218.747C402.206 218.833 402.221 218.923 402.283 219.016C402.345 219.105 402.452 219.194 402.604 219.282L402.637 219.301C402.892 219.448 403.141 219.524 403.387 219.529C403.632 219.531 403.871 219.465 404.104 219.33C404.185 219.284 404.265 219.226 404.346 219.158C404.427 219.087 404.487 219.01 404.528 218.93C404.556 218.871 404.597 218.829 404.653 218.803C404.706 218.777 404.762 218.764 404.821 218.766C404.883 218.766 404.94 218.777 404.993 218.801C405.043 218.822 405.079 218.854 405.1 218.895C405.125 218.934 405.127 218.98 405.105 219.032C405.065 219.134 404.99 219.236 404.881 219.338C404.773 219.437 404.658 219.521 404.537 219.591ZM406.814 218.277C406.615 218.391 406.392 218.465 406.143 218.497C405.898 218.527 405.645 218.516 405.384 218.462C405.12 218.406 404.867 218.309 404.625 218.169C404.38 218.027 404.212 217.882 404.122 217.733C404.029 217.583 404.009 217.437 404.062 217.295C404.118 217.152 404.245 217.023 404.444 216.908C404.633 216.799 404.844 216.731 405.077 216.704C405.313 216.675 405.532 216.69 405.734 216.75L405.682 216.779L404.472 216.08C404.375 216.025 404.327 215.968 404.327 215.911C404.327 215.853 404.374 215.798 404.467 215.744C404.56 215.69 404.656 215.663 404.756 215.663C404.858 215.662 404.957 215.689 405.054 215.744L407.82 217.341C407.916 217.397 407.966 217.454 407.969 217.513C407.969 217.57 407.922 217.626 407.829 217.68C407.736 217.733 407.64 217.76 407.54 217.76C407.438 217.759 407.338 217.73 407.242 217.674L406.879 217.465L407.07 217.516C407.185 217.636 407.219 217.765 407.172 217.903C407.126 218.041 407.006 218.165 406.814 218.277ZM406.534 217.927C406.649 217.861 406.722 217.786 406.753 217.704C406.784 217.621 406.769 217.535 406.707 217.446C406.645 217.353 406.531 217.259 406.367 217.164C406.118 217.02 405.881 216.944 405.654 216.935C405.425 216.924 405.223 216.969 405.049 217.069C404.934 217.136 404.861 217.21 404.83 217.293C404.796 217.373 404.81 217.46 404.872 217.553C404.934 217.643 405.048 217.735 405.212 217.83C405.457 217.972 405.696 218.049 405.929 218.061C406.159 218.072 406.361 218.027 406.534 217.927ZM409.769 216.57C409.533 216.707 409.28 216.797 409.01 216.842C408.74 216.887 408.468 216.886 408.195 216.839C407.919 216.791 407.66 216.697 407.417 216.557C407.234 216.451 407.098 216.342 407.008 216.229C406.918 216.113 406.873 215.995 406.873 215.877C406.869 215.757 406.913 215.64 407.003 215.527C407.09 215.413 407.222 215.304 407.399 215.202C407.635 215.066 407.888 214.975 408.158 214.931C408.428 214.886 408.699 214.887 408.973 214.933C409.246 214.98 409.503 215.073 409.746 215.213C409.929 215.319 410.065 215.43 410.155 215.546C410.249 215.661 410.297 215.778 410.3 215.898C410.3 216.017 410.256 216.133 410.169 216.248C410.079 216.361 409.946 216.468 409.769 216.57ZM409.327 216.315C409.441 216.249 409.514 216.174 409.545 216.092C409.576 216.009 409.561 215.923 409.499 215.834C409.437 215.741 409.323 215.647 409.159 215.552C408.911 215.408 408.673 215.332 408.446 215.323C408.217 215.312 408.015 215.357 407.841 215.457C407.726 215.524 407.653 215.598 407.622 215.681C407.588 215.761 407.602 215.848 407.664 215.941C407.726 216.031 407.84 216.123 408.004 216.218C408.249 216.36 408.488 216.437 408.721 216.449C408.951 216.46 409.153 216.415 409.327 216.315Z" fill="#0D3B66"/>
<rect x="-0.776077" width="14.0395" height="14.0395" rx="3.43519" transform="matrix(0.866025 -0.5 0.866025 0.5 379.376 213.083)" fill="#F4D35E" stroke="white" stroke-width="0.896137"/>
<path d="M393.236 214.089C393.263 214.423 392.782 214.705 392.203 214.693C391.944 214.687 391.826 214.507 392.011 214.4L392.726 213.982C392.91 213.874 393.223 213.94 393.236 214.089Z" fill="white"/>
<path fill-rule="evenodd" clip-rule="evenodd" d="M393.541 213.483C393.508 213.632 393.266 213.729 393.007 213.721L392.183 213.697C391.851 213.687 391.575 213.846 391.592 214.038L391.637 214.553C391.65 214.699 391.491 214.836 391.241 214.859C390.409 214.937 389.532 214.794 388.897 214.427C387.839 213.816 387.851 212.82 388.923 212.201C389.994 211.583 391.72 211.576 392.777 212.186C393.387 212.539 393.641 213.02 393.541 213.483ZM391.26 213.804C391.513 213.815 391.718 213.697 391.698 213.551L391.637 213.092C391.617 212.945 391.339 212.854 391.117 212.923C390.716 213.047 390.388 213.237 390.173 213.468C390.053 213.596 390.21 213.757 390.465 213.768L391.26 213.804ZM389.569 213.238C389.728 213.33 389.728 213.479 389.569 213.57C389.411 213.662 389.153 213.662 388.995 213.57C388.836 213.479 388.836 213.33 388.995 213.238C389.153 213.147 389.411 213.147 389.569 213.238ZM391.294 212.575C391.453 212.483 391.453 212.334 391.294 212.243C391.135 212.151 390.878 212.151 390.719 212.243C390.561 212.334 390.561 212.483 390.719 212.575C390.878 212.666 391.135 212.666 391.294 212.575Z" fill="white"/>
<rect width="83.6395" height="62.4309" rx="5.97425" transform="matrix(0.866025 -0.5 0.866025 0.5 399.141 166.872)" fill="white"/>
<rect x="0.776077" width="82.7433" height="40.9236" rx="5.52618" transform="matrix(0.866025 -0.5 0.866025 0.5 399.245 167.26)" fill="#DBA023" stroke="#E6E6E6" stroke-width="0.896137"/>
<path d="M474.615 179.116C474.531 179.168 474.439 179.194 474.34 179.194C474.24 179.194 474.152 179.171 474.074 179.126C474.015 179.092 473.983 179.052 473.977 179.006C473.964 178.959 473.991 178.915 474.056 178.874L474.186 178.788C474.313 178.704 474.374 178.62 474.368 178.538C474.361 178.452 474.287 178.367 474.144 178.285L472.049 177.075C471.949 177.018 471.9 176.961 471.9 176.903C471.9 176.842 471.948 176.784 472.044 176.728C472.14 176.673 472.24 176.646 472.342 176.648C472.445 176.646 472.545 176.674 472.645 176.731L474.736 177.938C474.931 178.051 475.062 178.168 475.127 178.288C475.195 178.406 475.2 178.527 475.141 178.651C475.079 178.773 474.953 178.895 474.764 179.019L474.615 179.116ZM477.187 177.646C476.998 177.756 476.807 177.827 476.615 177.859C476.419 177.889 476.22 177.882 476.018 177.837C475.82 177.791 475.616 177.707 475.409 177.587L474.282 176.937C474.182 176.879 474.134 176.823 474.137 176.767C474.137 176.71 474.184 176.654 474.277 176.601C474.37 176.547 474.466 176.52 474.566 176.52C474.665 176.516 474.764 176.543 474.864 176.601L476 177.257C476.161 177.35 476.313 177.4 476.456 177.407C476.599 177.414 476.742 177.377 476.885 177.294C477.04 177.205 477.114 177.101 477.108 176.982C477.099 176.862 477.006 176.751 476.829 176.649L475.804 176.058C475.705 176 475.657 175.944 475.66 175.888C475.66 175.831 475.707 175.775 475.8 175.722C475.893 175.668 475.989 175.641 476.088 175.641C476.188 175.637 476.287 175.664 476.386 175.722L478.147 176.738C478.345 176.852 478.35 176.965 478.16 177.074C478.07 177.126 477.976 177.152 477.876 177.152C477.774 177.15 477.675 177.121 477.578 177.066L477.225 176.861L477.429 176.904C477.532 177.039 477.561 177.171 477.518 177.3C477.478 177.427 477.367 177.543 477.187 177.646ZM479.893 176.084C479.76 176.161 479.604 176.235 479.428 176.305C479.251 176.375 479.069 176.424 478.883 176.453C478.802 176.463 478.731 176.463 478.668 176.453C478.606 176.438 478.557 176.418 478.519 176.393C478.482 176.365 478.461 176.334 478.454 176.302C478.451 176.268 478.465 176.237 478.496 176.208C478.53 176.177 478.585 176.155 478.659 176.141C478.842 176.103 479.001 176.06 479.134 176.012C479.265 175.961 479.382 175.906 479.488 175.845C479.637 175.759 479.722 175.681 479.744 175.611C479.766 175.538 479.735 175.477 479.651 175.428C479.58 175.387 479.5 175.37 479.414 175.377C479.327 175.381 479.226 175.405 479.111 175.45L478.557 175.668C478.327 175.757 478.11 175.802 477.905 175.802C477.7 175.798 477.515 175.749 477.351 175.654C477.202 175.568 477.113 175.47 477.085 175.361C477.06 175.25 477.092 175.135 477.178 175.017C477.265 174.899 477.403 174.785 477.593 174.676C477.729 174.597 477.872 174.532 478.021 174.482C478.17 174.428 478.332 174.387 478.506 174.358C478.577 174.346 478.641 174.347 478.696 174.361C478.755 174.374 478.802 174.395 478.836 174.425C478.867 174.454 478.886 174.486 478.892 174.522C478.895 174.556 478.88 174.589 478.845 174.619C478.811 174.646 478.755 174.667 478.678 174.684C478.532 174.71 478.403 174.744 478.291 174.783C478.183 174.821 478.088 174.863 478.007 174.909C477.855 174.997 477.768 175.078 477.747 175.151C477.728 175.223 477.762 175.284 477.849 175.334C477.914 175.372 477.99 175.391 478.077 175.391C478.164 175.391 478.26 175.369 478.366 175.326L478.92 175.108C479.159 175.013 479.379 174.965 479.581 174.963C479.786 174.96 479.972 175.006 480.14 175.103C480.367 175.234 480.457 175.388 480.41 175.565C480.36 175.741 480.188 175.914 479.893 176.084ZM482.386 174.645C482.147 174.783 481.891 174.875 481.617 174.922C481.341 174.967 481.065 174.965 480.789 174.917C480.512 174.868 480.253 174.774 480.011 174.634C479.828 174.529 479.691 174.419 479.601 174.306C479.511 174.19 479.468 174.073 479.471 173.957C479.471 173.839 479.517 173.722 479.61 173.607C479.7 173.491 479.835 173.381 480.016 173.277C480.118 173.218 480.242 173.162 480.388 173.11C480.537 173.056 480.697 173.018 480.868 172.994C480.948 172.984 481.018 172.986 481.077 173.003C481.136 173.019 481.184 173.043 481.222 173.075C481.256 173.106 481.274 173.14 481.277 173.177C481.281 173.211 481.265 173.244 481.231 173.274C481.194 173.303 481.135 173.324 481.054 173.339C480.945 173.355 480.846 173.378 480.756 173.409C480.663 173.437 480.584 173.47 480.518 173.508C480.416 173.567 480.343 173.629 480.3 173.693C480.253 173.756 480.233 173.822 480.239 173.89C480.245 173.954 480.279 174.021 480.341 174.089C480.404 174.157 480.494 174.225 480.612 174.293C480.841 174.426 481.077 174.499 481.319 174.513C481.561 174.524 481.783 174.471 481.985 174.355C482.05 174.317 482.108 174.273 482.158 174.223C482.21 174.171 482.252 174.113 482.283 174.048C482.308 174.002 482.345 173.969 482.395 173.952C482.448 173.932 482.505 173.924 482.567 173.927C482.626 173.929 482.682 173.942 482.735 173.965C482.785 173.987 482.822 174.015 482.847 174.051C482.875 174.085 482.879 174.124 482.861 174.167C482.82 174.262 482.757 174.35 482.67 174.433C482.583 174.515 482.488 174.586 482.386 174.645ZM484.606 173.363C484.349 173.512 484.079 173.612 483.796 173.664C483.514 173.716 483.233 173.721 482.953 173.678C482.677 173.633 482.418 173.54 482.176 173.401C481.94 173.264 481.781 173.117 481.701 172.96C481.623 172.8 481.62 172.643 481.691 172.487C481.763 172.327 481.909 172.184 482.129 172.056C482.291 171.963 482.461 171.895 482.641 171.852C482.825 171.807 483.011 171.788 483.2 171.793C483.393 171.797 483.584 171.826 483.773 171.882C483.962 171.934 484.145 172.011 484.322 172.113C484.378 172.145 484.402 172.182 484.392 172.223C484.383 172.261 484.343 172.3 484.271 172.341L482.776 173.204L482.441 173.011L483.75 172.255L483.745 172.339C483.602 172.256 483.461 172.2 483.321 172.169C483.185 172.137 483.051 172.13 482.921 172.148C482.79 172.162 482.666 172.203 482.548 172.272C482.418 172.347 482.337 172.429 482.306 172.519C482.275 172.605 482.291 172.695 482.353 172.788C482.415 172.877 482.522 172.966 482.674 173.054L482.707 173.073C482.961 173.22 483.211 173.296 483.456 173.301C483.701 173.303 483.941 173.237 484.173 173.102C484.254 173.056 484.335 172.998 484.415 172.93C484.496 172.859 484.557 172.782 484.597 172.702C484.625 172.643 484.667 172.6 484.723 172.575C484.776 172.548 484.831 172.536 484.89 172.538C484.953 172.538 485.01 172.549 485.063 172.573C485.112 172.594 485.148 172.626 485.17 172.667C485.195 172.706 485.196 172.752 485.174 172.804C485.134 172.906 485.06 173.008 484.951 173.11C484.842 173.209 484.727 173.293 484.606 173.363ZM486.786 172.105C486.528 172.254 486.261 172.324 485.985 172.315C485.705 172.304 485.423 172.216 485.137 172.051L482.935 170.779C482.838 170.724 482.79 170.667 482.79 170.61C482.79 170.553 482.837 170.497 482.93 170.443C483.023 170.39 483.119 170.363 483.219 170.363C483.321 170.361 483.421 170.388 483.517 170.443L485.691 171.699C485.834 171.781 485.969 171.825 486.096 171.831C486.227 171.834 486.348 171.804 486.46 171.739C486.484 171.725 486.508 171.711 486.529 171.699C486.548 171.685 486.567 171.67 486.585 171.656C486.623 171.627 486.665 171.617 486.711 171.626C486.755 171.634 486.821 171.663 486.911 171.715C486.989 171.76 487.034 171.804 487.046 171.847C487.059 171.89 487.034 171.935 486.972 171.981C486.944 172.001 486.914 172.022 486.883 172.043C486.852 172.065 486.82 172.085 486.786 172.105ZM487.77 171.521C487.677 171.574 487.577 171.599 487.472 171.596C487.366 171.592 487.264 171.562 487.164 171.504L485.455 170.518C485.353 170.459 485.3 170.4 485.297 170.34C485.291 170.279 485.334 170.222 485.427 170.168C485.521 170.115 485.62 170.089 485.725 170.093C485.831 170.093 485.935 170.123 486.037 170.182L487.746 171.168C487.846 171.226 487.898 171.285 487.905 171.346C487.911 171.407 487.866 171.465 487.77 171.521ZM484.994 169.918C484.886 169.981 484.774 170.015 484.659 170.02C484.544 170.022 484.439 169.995 484.343 169.94C484.243 169.882 484.197 169.822 484.203 169.757C484.212 169.691 484.271 169.626 484.38 169.563C484.492 169.499 484.603 169.465 484.715 169.461C484.827 169.458 484.932 169.485 485.032 169.542C485.128 169.597 485.174 169.658 485.171 169.725C485.165 169.789 485.106 169.854 484.994 169.918ZM488.961 170.838C488.868 170.892 488.772 170.919 488.672 170.919C488.57 170.917 488.471 170.888 488.374 170.833L486.614 169.816C486.518 169.761 486.47 169.704 486.47 169.647C486.47 169.59 486.515 169.535 486.605 169.483C486.695 169.431 486.79 169.405 486.889 169.405C486.988 169.405 487.086 169.433 487.182 169.488L487.499 169.671L487.331 169.634C487.235 169.499 487.217 169.367 487.276 169.236C487.335 169.101 487.456 168.981 487.639 168.876C487.822 168.77 488.007 168.703 488.193 168.674C488.379 168.645 488.572 168.654 488.77 168.701C488.966 168.746 489.169 168.829 489.38 168.951L490.507 169.601C490.603 169.657 490.653 169.714 490.656 169.773C490.656 169.831 490.61 169.886 490.516 169.94C490.423 169.994 490.326 170.022 490.223 170.023C490.121 170.022 490.021 169.993 489.925 169.937L488.826 169.303C488.649 169.201 488.486 169.146 488.337 169.139C488.191 169.13 488.049 169.166 487.909 169.247C487.738 169.345 487.656 169.455 487.662 169.577C487.668 169.695 487.76 169.806 487.937 169.908L488.957 170.497C489.155 170.611 489.157 170.725 488.961 170.838ZM492.444 168.838C492.208 168.974 491.955 169.065 491.685 169.11C491.415 169.154 491.143 169.153 490.87 169.107C490.594 169.058 490.335 168.964 490.093 168.825C489.909 168.719 489.773 168.609 489.683 168.497C489.593 168.38 489.548 168.263 489.548 168.144C489.545 168.024 489.588 167.908 489.678 167.795C489.765 167.68 489.897 167.572 490.074 167.47C490.31 167.333 490.563 167.243 490.833 167.198C491.103 167.153 491.375 167.154 491.648 167.201C491.921 167.247 492.179 167.341 492.421 167.48C492.604 167.586 492.74 167.697 492.831 167.814C492.924 167.928 492.972 168.046 492.975 168.166C492.975 168.284 492.931 168.401 492.844 168.515C492.754 168.628 492.621 168.736 492.444 168.838ZM492.002 168.583C492.117 168.516 492.189 168.442 492.221 168.359C492.252 168.277 492.236 168.191 492.174 168.101C492.112 168.008 491.999 167.914 491.834 167.819C491.586 167.676 491.348 167.6 491.122 167.591C490.892 167.58 490.69 167.625 490.516 167.725C490.401 167.791 490.328 167.866 490.297 167.948C490.263 168.029 490.277 168.116 490.339 168.209C490.401 168.299 490.515 168.391 490.679 168.486C490.924 168.627 491.164 168.704 491.396 168.717C491.626 168.728 491.828 168.683 492.002 168.583Z" fill="#0D3B66"/>
<rect x="-0.776077" width="14.0395" height="14.0395" rx="3.43519" transform="matrix(0.866025 -0.5 0.866025 0.5 460.089 166.484)" fill="#0D3B66" stroke="white" stroke-width="0.896137"/>
<path d="M473.948 167.49C473.976 167.824 473.494 168.105 472.915 168.093C472.656 168.088 472.538 167.908 472.723 167.8L473.438 167.383C473.623 167.275 473.935 167.341 473.948 167.49Z" fill="white"/>
<path fill-rule="evenodd" clip-rule="evenodd" d="M474.253 166.883C474.221 167.033 473.978 167.129 473.719 167.122L472.895 167.097C472.564 167.088 472.287 167.247 472.304 167.439L472.35 167.954C472.363 168.099 472.204 168.237 471.953 168.26C471.122 168.338 470.244 168.194 469.609 167.827C468.552 167.217 468.563 166.221 469.635 165.602C470.706 164.983 472.432 164.977 473.489 165.587C474.1 165.94 474.354 166.421 474.253 166.883ZM471.972 167.205C472.225 167.216 472.43 167.098 472.411 166.952L472.349 166.493C472.329 166.346 472.051 166.255 471.829 166.324C471.428 166.448 471.1 166.637 470.885 166.869C470.766 166.997 470.922 167.158 471.178 167.169L471.972 167.205ZM470.282 166.639C470.44 166.731 470.44 166.879 470.282 166.971C470.123 167.063 469.865 167.063 469.707 166.971C469.548 166.879 469.548 166.731 469.707 166.639C469.865 166.548 470.123 166.548 470.282 166.639ZM472.006 165.975C472.165 165.884 472.165 165.735 472.006 165.643C471.848 165.552 471.59 165.552 471.431 165.643C471.273 165.735 471.273 165.884 471.431 165.975C471.59 166.067 471.848 166.067 472.006 165.975Z" fill="white"/>
<rect width="83.6395" height="62.4309" rx="5.97425" transform="matrix(0.866025 -0.5 0.866025 0.5 237.717 260.07)" fill="white"/>
<rect x="0.776077" width="82.7433" height="40.9236" rx="5.52618" transform="matrix(0.866025 -0.5 0.866025 0.5 237.821 260.458)" fill="#DBA023" stroke="#E6E6E6" stroke-width="0.896137"/>
<path d="M316.541 270.395C316.178 270.605 315.802 270.743 315.414 270.809C315.029 270.874 314.646 270.871 314.264 270.801C313.882 270.732 313.519 270.597 313.175 270.398C312.914 270.248 312.717 270.091 312.583 269.928C312.453 269.763 312.386 269.597 312.383 269.43C312.38 269.26 312.444 269.092 312.574 268.928C312.701 268.761 312.897 268.601 313.161 268.449C313.334 268.349 313.53 268.261 313.747 268.186C313.965 268.107 314.201 268.051 314.455 268.019C314.542 268.008 314.618 268.013 314.683 268.032C314.752 268.05 314.806 268.078 314.846 268.116C314.884 268.152 314.904 268.19 314.907 268.231C314.91 268.273 314.89 268.311 314.846 268.347C314.806 268.381 314.738 268.406 314.641 268.422C314.455 268.451 314.286 268.491 314.134 268.543C313.982 268.595 313.831 268.664 313.682 268.75C313.452 268.883 313.305 269.022 313.24 269.167C313.171 269.31 313.184 269.455 313.277 269.602C313.373 269.748 313.547 269.893 313.799 270.038C314.18 270.258 314.562 270.373 314.944 270.382C315.326 270.391 315.697 270.292 316.057 270.084C316.181 270.012 316.294 269.932 316.397 269.844C316.499 269.757 316.589 269.665 316.667 269.57L316.816 269.791L315.824 269.218L315.312 269.514C315.234 269.558 315.154 269.582 315.07 269.584C314.989 269.584 314.915 269.564 314.846 269.524C314.775 269.483 314.741 269.44 314.744 269.395C314.75 269.349 314.792 269.303 314.87 269.258L315.638 268.815C315.715 268.77 315.796 268.748 315.88 268.75C315.964 268.748 316.045 268.77 316.122 268.815L317.254 269.468C317.322 269.507 317.365 269.549 317.384 269.592C317.406 269.633 317.398 269.677 317.361 269.723C317.274 269.831 317.159 269.946 317.016 270.067C316.87 270.188 316.712 270.297 316.541 270.395ZM319.458 268.712C319.2 268.86 318.93 268.961 318.647 269.013C318.365 269.065 318.084 269.069 317.805 269.026C317.528 268.981 317.269 268.889 317.027 268.749C316.791 268.613 316.633 268.466 316.552 268.308C316.474 268.149 316.471 267.991 316.543 267.835C316.614 267.676 316.76 267.532 316.98 267.405C317.142 267.312 317.313 267.244 317.493 267.201C317.676 267.156 317.862 267.136 318.051 267.142C318.244 267.145 318.435 267.175 318.624 267.23C318.814 267.282 318.997 267.359 319.174 267.462C319.23 267.494 319.253 267.531 319.244 267.572C319.234 267.609 319.194 267.649 319.122 267.69L317.628 268.553L317.292 268.359L318.601 267.604L318.596 267.687C318.453 267.605 318.312 267.548 318.173 267.518C318.036 267.486 317.902 267.479 317.772 267.496C317.642 267.511 317.518 267.552 317.4 267.62C317.269 267.695 317.188 267.778 317.157 267.867C317.126 267.954 317.142 268.043 317.204 268.136C317.266 268.226 317.373 268.315 317.525 268.402L317.558 268.421C317.812 268.568 318.062 268.644 318.308 268.65C318.553 268.652 318.792 268.585 319.025 268.451C319.105 268.404 319.186 268.347 319.267 268.279C319.347 268.207 319.408 268.131 319.448 268.05C319.476 267.991 319.518 267.949 319.574 267.924C319.627 267.897 319.683 267.884 319.742 267.886C319.804 267.886 319.861 267.898 319.914 267.921C319.964 267.943 319.999 267.974 320.021 268.015C320.046 268.055 320.048 268.1 320.026 268.152C319.985 268.255 319.911 268.357 319.802 268.459C319.694 268.557 319.579 268.642 319.458 268.712ZM321.893 267.305C321.691 267.422 321.488 267.5 321.283 267.539C321.081 267.577 320.883 267.577 320.687 267.539C320.489 267.5 320.291 267.424 320.096 267.311L319.104 266.738L318.862 266.878C318.787 266.921 318.711 266.943 318.634 266.945C318.553 266.945 318.478 266.926 318.41 266.886C318.339 266.845 318.305 266.802 318.308 266.757C318.311 266.712 318.35 266.668 318.424 266.625L318.666 266.486L318.243 266.241C318.146 266.185 318.098 266.129 318.098 266.072C318.101 266.012 318.149 265.956 318.243 265.902C318.336 265.848 318.432 265.821 318.531 265.821C318.631 265.821 318.728 265.849 318.825 265.905L319.248 266.149L319.742 265.865C319.816 265.821 319.892 265.799 319.97 265.797C320.048 265.795 320.122 265.815 320.194 265.856C320.262 265.896 320.296 265.939 320.296 265.985C320.293 266.03 320.254 266.074 320.18 266.117L319.686 266.402L320.645 266.956C320.794 267.042 320.939 267.088 321.078 267.093C321.218 267.098 321.361 267.059 321.507 266.975C321.559 266.944 321.601 266.915 321.632 266.886C321.663 266.857 321.693 266.833 321.721 266.814C321.755 266.79 321.799 266.779 321.851 266.781C321.901 266.781 321.966 266.805 322.047 266.851C322.109 266.887 322.154 266.926 322.182 266.967C322.21 267.004 322.207 267.044 322.173 267.085C322.145 267.116 322.103 267.152 322.047 267.195C321.994 267.24 321.943 267.277 321.893 267.305ZM323.461 266.4C323.272 266.509 323.081 266.58 322.889 266.612C322.693 266.643 322.494 266.636 322.293 266.591C322.094 266.544 321.891 266.461 321.683 266.341L320.556 265.69C320.456 265.633 320.408 265.577 320.411 265.521C320.411 265.464 320.458 265.408 320.551 265.354C320.644 265.301 320.741 265.274 320.84 265.274C320.939 265.27 321.039 265.297 321.138 265.354L322.274 266.01C322.435 266.103 322.588 266.154 322.73 266.161C322.873 266.168 323.016 266.13 323.159 266.048C323.314 265.958 323.389 265.854 323.382 265.736C323.373 265.616 323.28 265.505 323.103 265.403L322.078 264.811C321.979 264.754 321.931 264.697 321.934 264.642C321.934 264.584 321.981 264.529 322.074 264.475C322.167 264.421 322.263 264.395 322.363 264.395C322.462 264.391 322.561 264.418 322.661 264.475L324.421 265.491C324.619 265.606 324.624 265.718 324.435 265.827C324.345 265.879 324.25 265.905 324.151 265.905C324.048 265.904 323.949 265.875 323.853 265.819L323.499 265.615L323.704 265.658C323.806 265.792 323.836 265.924 323.792 266.053C323.752 266.181 323.642 266.296 323.461 266.4ZM321.24 264.612C321.253 264.655 321.24 264.691 321.203 264.72C321.166 264.748 321.116 264.768 321.054 264.779C320.992 264.79 320.931 264.789 320.872 264.776C320.817 264.762 320.776 264.733 320.751 264.69L320.411 264.085C320.38 264.035 320.38 263.992 320.411 263.956C320.439 263.919 320.484 263.889 320.547 263.868C320.609 263.846 320.674 263.835 320.742 263.835C320.813 263.834 320.877 263.845 320.933 263.87C320.989 263.892 321.025 263.927 321.04 263.975L321.24 264.612ZM326.111 264.87C325.854 265.019 325.587 265.089 325.311 265.08C325.031 265.069 324.749 264.981 324.463 264.816L322.261 263.545C322.164 263.489 322.116 263.433 322.116 263.375C322.116 263.318 322.163 263.262 322.256 263.209C322.349 263.155 322.445 263.128 322.545 263.128C322.647 263.126 322.746 263.153 322.843 263.209L325.017 264.464C325.16 264.547 325.295 264.59 325.422 264.596C325.553 264.599 325.674 264.569 325.786 264.504C325.81 264.49 325.834 264.477 325.855 264.464C325.874 264.45 325.893 264.435 325.911 264.421C325.948 264.392 325.99 264.383 326.037 264.392C326.08 264.399 326.147 264.428 326.237 264.48C326.315 264.525 326.36 264.569 326.372 264.612C326.385 264.655 326.36 264.7 326.298 264.746C326.27 264.766 326.24 264.787 326.209 264.808C326.178 264.83 326.146 264.85 326.111 264.87ZM327.096 264.286C327.002 264.34 326.903 264.365 326.798 264.361C326.692 264.357 326.59 264.327 326.49 264.27L324.781 263.283C324.679 263.224 324.626 263.165 324.623 263.106C324.617 263.045 324.66 262.987 324.753 262.934C324.846 262.88 324.946 262.855 325.051 262.858C325.157 262.858 325.261 262.888 325.363 262.947L327.072 263.934C327.172 263.991 327.224 264.05 327.231 264.111C327.237 264.172 327.192 264.23 327.096 264.286ZM324.32 262.684C324.212 262.746 324.1 262.78 323.985 262.786C323.87 262.787 323.765 262.761 323.668 262.705C323.569 262.648 323.522 262.587 323.529 262.522C323.538 262.456 323.597 262.391 323.706 262.329C323.817 262.264 323.929 262.23 324.041 262.226C324.153 262.223 324.258 262.25 324.358 262.307C324.454 262.363 324.5 262.424 324.497 262.49C324.491 262.554 324.432 262.619 324.32 262.684ZM329.046 263.176C328.81 263.312 328.557 263.403 328.287 263.447C328.017 263.492 327.745 263.491 327.472 263.445C327.196 263.396 326.937 263.302 326.695 263.162C326.511 263.057 326.375 262.947 326.285 262.834C326.195 262.718 326.15 262.6 326.15 262.482C326.147 262.362 326.19 262.246 326.28 262.133C326.367 262.018 326.499 261.91 326.676 261.807C326.912 261.671 327.165 261.581 327.435 261.536C327.705 261.491 327.977 261.492 328.25 261.539C328.523 261.585 328.781 261.678 329.023 261.818C329.206 261.924 329.343 262.035 329.433 262.152C329.526 262.266 329.574 262.384 329.577 262.504C329.577 262.622 329.533 262.738 329.447 262.853C329.356 262.966 329.223 263.074 329.046 263.176ZM328.604 262.92C328.719 262.854 328.791 262.78 328.823 262.697C328.854 262.615 328.838 262.529 328.776 262.439C328.714 262.346 328.601 262.252 328.436 262.157C328.188 262.014 327.95 261.937 327.724 261.928C327.494 261.918 327.292 261.962 327.118 262.063C327.003 262.129 326.93 262.203 326.899 262.286C326.865 262.367 326.879 262.454 326.941 262.547C327.003 262.636 327.117 262.729 327.281 262.824C327.526 262.965 327.766 263.042 327.998 263.055C328.228 263.066 328.43 263.021 328.604 262.92Z" fill="#0D3B66"/>
<rect x="-0.776077" width="14.0395" height="14.0395" rx="3.43519" transform="matrix(0.866025 -0.5 0.866025 0.5 298.664 259.682)" fill="#F15156" stroke="white" stroke-width="0.896137"/>
<path d="M312.524 260.688C312.551 261.022 312.07 261.304 311.491 261.292C311.232 261.286 311.114 261.107 311.299 260.999L312.014 260.581C312.198 260.473 312.511 260.539 312.524 260.688Z" fill="white"/>
<path fill-rule="evenodd" clip-rule="evenodd" d="M312.829 260.082C312.797 260.231 312.554 260.328 312.295 260.32L311.471 260.296C311.139 260.286 310.863 260.446 310.88 260.637L310.925 261.152C310.938 261.298 310.779 261.435 310.529 261.459C309.697 261.537 308.82 261.393 308.185 261.026C307.127 260.415 307.139 259.419 308.211 258.8C309.282 258.182 311.008 258.175 312.065 258.785C312.675 259.138 312.93 259.619 312.829 260.082ZM310.548 260.403C310.801 260.414 311.006 260.296 310.986 260.15L310.925 259.691C310.905 259.544 310.627 259.453 310.405 259.522C310.004 259.647 309.676 259.836 309.461 260.068C309.342 260.196 309.498 260.356 309.753 260.368L310.548 260.403ZM308.857 259.838C309.016 259.929 309.016 260.078 308.857 260.169C308.699 260.261 308.441 260.261 308.282 260.169C308.124 260.078 308.124 259.929 308.282 259.838C308.441 259.746 308.699 259.746 308.857 259.838ZM310.582 259.174C310.741 259.082 310.741 258.933 310.582 258.842C310.423 258.75 310.166 258.75 310.007 258.842C309.849 258.933 309.849 259.082 310.007 259.174C310.166 259.265 310.423 259.265 310.582 259.174Z" fill="white"/>
<rect width="28.6764" height="18.2215" transform="matrix(0.866025 -0.5 0.866025 0.5 70.3463 156.867)" fill="#FDECED"/>
</g>
<defs>
<clipPath id="clip0_131_2049">
<rect width="430.146" height="244.944" rx="8.96137" transform="matrix(0.866025 -0.5 0.866025 0.5 -59 215.414)" fill="white"/>
</clipPath>
</defs>
</svg>
